<svg width="22" height="22" viewBox="0 0 22 22" fill="none" xmlns="http://www.w3.org/2000/svg">
<g clip-path="url(#clip0_2746_19362)">
<path d="M21.2262 12.7356C21.8826 7.21089 20.9109 3.72297 19.1582 2.14539L19.1591 2.14447C16.3303 -0.549611 6.77681 -0.948361 3.39247 2.26547C1.87264 3.83756 1.33731 6.14481 1.27864 9.00114C1.21997 11.8584 1.15031 17.2108 6.13789 18.6628H6.14247L6.13789 20.8802C6.13789 20.8802 6.10397 21.7786 6.6778 21.9591C7.33414 22.1718 7.63114 21.7547 9.67255 19.3164C13.0862 19.6125 15.7079 18.9341 16.0058 18.8351C16.6951 18.6041 20.5956 18.0881 21.2262 12.7356ZM10.009 17.7562C10.009 17.7562 7.84839 20.4503 7.17647 21.1497C6.95647 21.3771 6.71539 21.356 6.71906 20.905C6.71906 20.6089 6.73556 17.2236 6.73556 17.2236C2.50697 16.0118 2.75631 11.4541 2.80214 9.06989C2.84797 6.68472 3.28431 4.73131 4.57131 3.41589C7.54039 0.631972 15.916 1.25439 18.05 3.26006C20.6588 5.5728 19.7302 12.1068 19.7357 12.3296C19.1995 16.7974 16.0388 17.0806 15.4576 17.2741C15.2092 17.3566 12.9038 17.9496 10.009 17.7562Z" fill="white"/>
<path d="M11.2041 3.93945C10.8512 3.93945 10.8512 4.48945 11.2041 4.49404C13.9422 4.51512 16.1972 6.42362 16.222 9.92437C16.222 10.2938 16.7628 10.2892 16.7582 9.91979H16.7573C16.728 6.1477 14.2658 3.96054 11.2041 3.93945Z" fill="white"/>
<path d="M14.8052 9.34459C14.797 9.70943 15.3369 9.72684 15.3415 9.35743C15.3864 7.27751 14.104 5.56426 11.694 5.38368C11.3411 5.35801 11.3044 5.91259 11.6564 5.93826C13.7465 6.09684 14.8474 7.52318 14.8052 9.34459Z" fill="white"/>
<path d="M14.2283 11.7094C13.7755 11.4473 13.3144 11.6104 13.1238 11.868L12.725 12.3841C12.5224 12.6463 12.1438 12.6114 12.1438 12.6114C9.38101 11.8809 8.64218 8.98968 8.64218 8.98968C8.64218 8.98968 8.60826 8.59827 8.86126 8.38835L9.35992 7.97585C9.60926 7.77785 9.76692 7.30118 9.51301 6.83277C8.83468 5.60718 8.37909 5.1846 8.14718 4.8601C7.90334 4.55485 7.53668 4.4861 7.15535 4.69235H7.1471C6.35418 5.15618 5.4861 6.02427 5.76385 6.91802C6.23776 7.86035 7.1086 10.8643 9.88426 13.1339C11.1887 14.2074 13.253 15.3074 14.1293 15.5613L14.1376 15.5741C15.0011 15.8619 15.8407 14.9599 16.289 14.1432V14.1368C16.4879 13.7417 16.4219 13.3677 16.1313 13.1229C15.6162 12.6206 14.8388 12.066 14.2283 11.7094Z" fill="white"/>
<path d="M12.0703 7.42822C12.9512 7.47955 13.3784 7.93972 13.4242 8.88481C13.4407 9.25423 13.977 9.22856 13.9605 8.85914C13.9018 7.6253 13.2583 6.9378 12.0996 6.87363C11.7467 6.85255 11.7137 7.40714 12.0703 7.42822Z" fill="white"/>
</g>
<defs>
<clipPath id="clip0_2746_19362">
<rect width="22" height="22" fill="white"/>
</clipPath>
</defs>
</svg>
