<svg width="22" height="22" viewBox="0 0 22 22" fill="none" xmlns="http://www.w3.org/2000/svg">
<path d="M15.9287 0H6.07107C2.72349 0 0 2.72362 0 6.07121V15.9288C0 19.2765 2.72349 22 6.07107 22H15.9287C19.2765 22 22 19.2764 22 15.9288V6.07121C22.0001 2.72362 19.2765 0 15.9287 0ZM20.0482 15.9288C20.0482 18.2002 18.2002 20.0481 15.9288 20.0481H6.07107C3.79979 20.0482 1.95195 18.2002 1.95195 15.9288V6.07121C1.95195 3.79992 3.79979 1.95195 6.07107 1.95195H15.9287C18.2001 1.95195 20.0481 3.79992 20.0481 6.07121V15.9288H20.0482Z" fill="white"/>
<path d="M10.9989 5.33008C7.87307 5.33008 5.33008 7.87307 5.33008 10.9989C5.33008 14.1246 7.87307 16.6675 10.9989 16.6675C14.1248 16.6675 16.6678 14.1246 16.6678 10.9989C16.6678 7.87307 14.1248 5.33008 10.9989 5.33008ZM10.9989 14.7154C8.94951 14.7154 7.28202 13.0482 7.28202 10.9988C7.28202 8.94925 8.94938 7.28189 10.9989 7.28189C13.0485 7.28189 14.7158 8.94925 14.7158 10.9988C14.7158 13.0482 13.0483 14.7154 10.9989 14.7154Z" fill="white"/>
<path d="M16.908 3.67578C16.5319 3.67578 16.1625 3.82803 15.8969 4.0948C15.63 4.36026 15.4766 4.72983 15.4766 5.10721C15.4766 5.48341 15.6301 5.85285 15.8969 6.11962C16.1623 6.38508 16.5319 6.53864 16.908 6.53864C17.2854 6.53864 17.6536 6.38508 17.9204 6.11962C18.1872 5.85285 18.3394 5.48328 18.3394 5.10721C18.3394 4.72983 18.1872 4.36026 17.9204 4.0948C17.6549 3.82803 17.2854 3.67578 16.908 3.67578Z" fill="white"/>
</svg>
