<svg width="18" height="18" viewBox="0 0 18 18" fill="none" xmlns="http://www.w3.org/2000/svg">
<path d="M13.0325 0H4.96721C2.22829 0 0 2.2284 0 4.96732V13.0326C0 15.7716 2.22829 17.9999 4.96721 17.9999H13.0325C15.7716 17.9999 17.9999 15.7715 17.9999 13.0326V4.96732C18 2.2284 15.7716 0 13.0325 0ZM16.403 13.0326C16.403 14.891 14.891 16.4029 13.0326 16.4029H4.96721C3.1089 16.403 1.59704 14.891 1.59704 13.0326V4.96732C1.59704 3.10901 3.1089 1.59704 4.96721 1.59704H13.0325C14.8909 1.59704 16.4029 3.10901 16.4029 4.96732V13.0326H16.403Z" fill="#343434"/>
<path d="M8.99945 4.36133C6.44195 4.36133 4.36133 6.44195 4.36133 8.99944C4.36133 11.5568 6.44195 13.6373 8.99945 13.6373C11.5569 13.6373 13.6376 11.5568 13.6376 8.99944C13.6376 6.44195 11.5569 4.36133 8.99945 4.36133ZM8.99945 12.0402C7.32266 12.0402 5.95837 10.6761 5.95837 8.99934C5.95837 7.32245 7.32256 5.95826 8.99945 5.95826C10.6763 5.95826 12.0405 7.32245 12.0405 8.99934C12.0405 10.6761 10.6762 12.0402 8.99945 12.0402Z" fill="#343434"/>
<path d="M13.8333 3.00781C13.5256 3.00781 13.2233 3.13238 13.006 3.35064C12.7876 3.56784 12.6621 3.87021 12.6621 4.17897C12.6621 4.48678 12.7877 4.78904 13.006 5.0073C13.2232 5.2245 13.5256 5.35013 13.8333 5.35013C14.142 5.35013 14.4433 5.2245 14.6616 5.0073C14.8798 4.78904 15.0044 4.48667 15.0044 4.17897C15.0044 3.87021 14.8798 3.56784 14.6616 3.35064C14.4444 3.13238 14.142 3.00781 13.8333 3.00781Z" fill="#343434"/>
</svg>
