<svg width="20" height="20" viewBox="0 0 20 20" fill="none" xmlns="http://www.w3.org/2000/svg">
<g clip-path="url(#clip0_2746_4468)">
<path d="M19.2964 11.5768C19.8931 6.55429 19.0097 3.38345 17.4164 1.94929L17.4172 1.94845C14.8456 -0.500712 6.16055 -0.863212 3.08389 2.05845C1.70222 3.48762 1.21555 5.58512 1.16222 8.18179C1.10889 10.7793 1.04555 15.6451 5.57972 16.9651H5.58389L5.57972 18.981C5.57972 18.981 5.54889 19.7976 6.07055 19.9618C6.66722 20.1551 6.93722 19.776 8.79305 17.5593C11.8964 17.8285 14.2797 17.2118 14.5506 17.1218C15.1772 16.9118 18.7231 16.4426 19.2964 11.5768ZM9.09889 16.141C9.09889 16.141 7.13472 18.5901 6.52389 19.226C6.32389 19.4326 6.10472 19.4135 6.10805 19.0035C6.10805 18.7343 6.12305 15.6568 6.12305 15.6568C2.27889 14.5551 2.50555 10.4118 2.54722 8.24429C2.58889 6.07596 2.98555 4.30012 4.15555 3.10429C6.85472 0.573455 14.4689 1.13929 16.4089 2.96262C18.7806 5.06512 17.9364 11.0051 17.9414 11.2076C17.4539 15.2693 14.5806 15.5268 14.0522 15.7026C13.8264 15.7776 11.7306 16.3168 9.09889 16.141Z" fill="#343434"/>
<path d="M10.1859 3.58008C9.8651 3.58008 9.8651 4.08008 10.1859 4.08424C12.6751 4.10341 14.7251 5.83841 14.7476 9.02091C14.7476 9.35675 15.2393 9.35258 15.2351 9.01675H15.2343C15.2076 5.58758 12.9693 3.59924 10.1859 3.58008Z" fill="#343434"/>
<path d="M13.4595 8.4942C13.452 8.82586 13.9428 8.8417 13.947 8.50586C13.9878 6.61503 12.822 5.05753 10.6311 4.89336C10.3103 4.87003 10.2769 5.3742 10.5969 5.39753C12.497 5.5417 13.4978 6.83836 13.4595 8.4942Z" fill="#343434"/>
<path d="M12.9345 10.6448C12.5228 10.4064 12.1037 10.5548 11.9303 10.7889L11.5678 11.2581C11.3837 11.4964 11.0395 11.4648 11.0395 11.4648C8.52783 10.8006 7.85617 8.17226 7.85617 8.17226C7.85617 8.17226 7.82534 7.81643 8.05534 7.62559L8.50867 7.25059C8.73533 7.07059 8.87867 6.63726 8.64783 6.21143C8.03117 5.09726 7.617 4.71309 7.40617 4.41809C7.1845 4.14059 6.85117 4.07809 6.5045 4.26559H6.497C5.77617 4.68726 4.98701 5.47643 5.23951 6.28893C5.67034 7.14559 6.462 9.87643 8.98533 11.9398C10.1712 12.9156 12.0478 13.9156 12.8445 14.1464L12.852 14.1581C13.637 14.4198 14.4003 13.5998 14.8078 12.8573V12.8514C14.9887 12.4923 14.9287 12.1523 14.6645 11.9298C14.1962 11.4731 13.4895 10.9689 12.9345 10.6448Z" fill="#343434"/>
<path d="M10.9732 6.75275C11.774 6.79942 12.1623 7.21775 12.204 8.07692C12.219 8.41276 12.7065 8.38942 12.6915 8.05359C12.6382 6.93192 12.0532 6.30691 10.9998 6.24858C10.679 6.22941 10.649 6.73358 10.9732 6.75275Z" fill="#343434"/>
</g>
<defs>
<clipPath id="clip0_2746_4468">
<rect width="20" height="20" fill="white"/>
</clipPath>
</defs>
</svg>
