<svg width="22" height="22" viewBox="0 0 22 22" fill="none" xmlns="http://www.w3.org/2000/svg">
<path d="M6.54762 17.6C5.34722 17.6 4.37599 18.59 4.37599 19.8C4.37599 21.01 5.34722 22 6.54762 22C7.74802 22 8.73016 21.01 8.73016 19.8C8.73016 18.59 7.74802 17.6 6.54762 17.6ZM17.4603 17.6C16.2599 17.6 15.2887 18.59 15.2887 19.8C15.2887 21.01 16.2599 22 17.4603 22C18.6607 22 19.6429 21.01 19.6429 19.8C19.6429 18.59 18.6607 17.6 17.4603 17.6ZM7.74802 12.1H15.878C16.6964 12.1 17.4167 11.649 17.7877 10.967L22 3.256L20.1012 2.2L19.3668 3.53904H4.88681L5.45616 5.54773H18.5514L15.878 9.9H8.21726L3.56845 0H0V2.2H2.18254L6.11111 10.549L4.6379 13.233C3.84127 14.707 4.88889 16.5 6.54762 16.5H19.6429V14.3H6.54762L7.74802 12.1Z" fill="#005DFF"/>
</svg>
