<svg width="24" height="24" viewBox="0 0 24 24" fill="none" xmlns="http://www.w3.org/2000/svg">
<g clip-path="url(#clip0_2744_4497)">
<path fill-rule="evenodd" clip-rule="evenodd" d="M20.5037 3.48773C18.2477 1.23984 15.2475 0.00126346 12.0511 0C5.46504 0 0.104778 5.33464 0.102142 11.8918C0.101264 13.9878 0.651507 16.0338 1.6971 17.8373L0.00195312 24L6.33629 22.3463C8.08151 23.2937 10.0465 23.793 12.0464 23.7938H12.0513C18.6367 23.7938 23.9974 18.4585 24.0001 11.9013C24.0014 8.72359 22.7597 5.73561 20.5037 3.48773ZM12.0513 21.7852H12.0472C10.2651 21.7845 8.51722 21.308 6.99242 20.4074L6.62973 20.1932L2.8709 21.1746L3.87422 17.527L3.63805 17.153C2.6439 15.5792 2.11881 13.7602 2.11959 11.8925C2.12177 6.4425 6.57705 2.00857 12.0552 2.00857C14.7079 2.00958 17.2015 3.0391 19.0765 4.90747C20.9516 6.77583 21.9837 9.25933 21.9827 11.9005C21.9804 17.3509 17.5252 21.7852 12.0513 21.7852ZM17.4989 14.3822C17.2003 14.2334 15.7324 13.5145 15.4587 13.4154C15.1851 13.3162 14.9861 13.2666 14.787 13.5641C14.588 13.8616 14.0158 14.5309 13.8416 14.7292C13.6675 14.9276 13.4933 14.9524 13.1947 14.8036C12.8962 14.6549 11.9342 14.3411 10.7938 13.3287C9.90627 12.5409 9.30702 11.5677 9.13286 11.2702C8.95871 10.9727 9.11435 10.8119 9.26381 10.6637C9.3981 10.5306 9.56236 10.3167 9.71165 10.1431C9.8609 9.96962 9.91066 9.84568 10.0102 9.64738C10.1097 9.44905 10.0599 9.2755 9.9853 9.12677C9.91066 8.97804 9.31359 7.5154 9.06476 6.92045C8.82244 6.341 8.57628 6.4194 8.39301 6.41033C8.21906 6.40172 8.01982 6.39987 7.82081 6.39987C7.62176 6.39987 7.29832 6.47425 7.02463 6.77171C6.75097 7.06921 5.97972 7.78812 5.97972 9.25072C5.97972 10.7133 7.04952 12.1263 7.19881 12.3246C7.34807 12.523 9.30409 15.5245 12.2991 16.8116C13.0114 17.1178 13.5675 17.3006 14.0011 17.4376C14.7164 17.6637 15.3672 17.6318 15.8817 17.5553C16.4553 17.47 17.6481 16.8364 17.8969 16.1423C18.1457 15.4482 18.1457 14.8532 18.0711 14.7293C17.9965 14.6053 17.7974 14.5309 17.4989 14.3822Z" fill="#38DD56"/>
</g>
<defs>
<clipPath id="clip0_2744_4497">
<rect width="24" height="24" fill="white"/>
</clipPath>
</defs>
</svg>
