<svg width="14" height="12" viewBox="0 0 14 12" fill="none" xmlns="http://www.w3.org/2000/svg">
<path d="M1.00065 0H13.0007C13.1775 0 13.347 0.0702379 13.4721 0.195262C13.5971 0.320286 13.6673 0.489856 13.6673 0.666667V11.3333C13.6673 11.5101 13.5971 11.6797 13.4721 11.8047C13.347 11.9298 13.1775 12 13.0007 12H1.00065C0.82384 12 0.654271 11.9298 0.529246 11.8047C0.404222 11.6797 0.333984 11.5101 0.333984 11.3333V0.666667C0.333984 0.489856 0.404222 0.320286 0.529246 0.195262C0.654271 0.0702379 0.82384 0 1.00065 0ZM7.04065 5.78867L2.76598 2.15867L1.90265 3.17467L7.04932 7.54467L12.1033 3.17133L11.2313 2.16267L7.04132 5.78867H7.04065Z" fill="#005DFF"/>
</svg>
