<svg width="14" height="14" viewBox="0 0 14 14" fill="none" xmlns="http://www.w3.org/2000/svg">
<path d="M0.33666 13.6663L1.23799 10.3543C0.644085 9.33624 0.332057 8.17834 0.333993 6.99967C0.333993 3.31767 3.31866 0.333008 7.00066 0.333008C10.6827 0.333008 13.6673 3.31767 13.6673 6.99967C13.6673 10.6817 10.6827 13.6663 7.00066 13.6663C5.82251 13.6682 4.6651 13.3565 3.64733 12.763L0.33666 13.6663ZM4.59466 3.87167C4.50857 3.87702 4.42444 3.8997 4.34733 3.93834C4.27501 3.97929 4.20899 4.03049 4.15133 4.09034C4.07133 4.16567 4.02599 4.23101 3.97733 4.29434C3.73093 4.61501 3.5984 5.00862 3.60066 5.41301C3.60199 5.73967 3.68733 6.05767 3.82066 6.35501C4.09333 6.95634 4.54199 7.59301 5.13466 8.18301C5.27733 8.32501 5.41666 8.46768 5.56666 8.60034C6.30225 9.24798 7.17883 9.71503 8.12666 9.96434L8.50599 10.0223C8.62933 10.029 8.75266 10.0197 8.87666 10.0137C9.07082 10.0037 9.2604 9.95108 9.43199 9.85968C9.54266 9.80101 9.59466 9.77167 9.68733 9.71301C9.68733 9.71301 9.71599 9.69434 9.77066 9.65301C9.86066 9.58634 9.91599 9.53901 9.99066 9.46101C10.046 9.40368 10.094 9.33634 10.1307 9.25968C10.1827 9.15101 10.2347 8.94367 10.256 8.77101C10.272 8.63901 10.2673 8.56701 10.2653 8.52234C10.2627 8.45101 10.2033 8.37701 10.1387 8.34567L9.75066 8.17167C9.75066 8.17167 9.17066 7.91901 8.81666 7.75767C8.77934 7.74141 8.73934 7.73214 8.69866 7.73034C8.65305 7.72566 8.60696 7.73079 8.56349 7.74539C8.52003 7.76 8.48019 7.78373 8.44666 7.81501V7.81367C8.44333 7.81367 8.39866 7.85168 7.91666 8.43567C7.88899 8.47285 7.85089 8.50094 7.8072 8.51638C7.7635 8.53181 7.7162 8.53389 7.67133 8.52234C7.62789 8.51073 7.58534 8.49602 7.54399 8.47834C7.46133 8.44368 7.43266 8.43034 7.37599 8.40567L7.37266 8.40434C6.99127 8.23782 6.63814 8.01291 6.32599 7.73767C6.24199 7.66434 6.16399 7.58434 6.08399 7.50701C5.82171 7.25583 5.59314 6.97168 5.40399 6.66167L5.36466 6.59834C5.33641 6.55578 5.31357 6.50988 5.29666 6.46167C5.27133 6.36367 5.33733 6.28501 5.33733 6.28501C5.33733 6.28501 5.49933 6.10767 5.57466 6.01167C5.63739 5.93189 5.69591 5.84889 5.74999 5.76301C5.82866 5.63634 5.85333 5.50634 5.81199 5.40567C5.62533 4.94967 5.43199 4.49567 5.23333 4.04501C5.19399 3.95567 5.07733 3.89167 4.97133 3.87901C4.93533 3.87501 4.89933 3.87101 4.86333 3.86834C4.7738 3.86389 4.68408 3.86478 4.59466 3.87101V3.87167Z" fill="#005DFF"/>
</svg>
